<?xml version="1.0" encoding="utf-8" standalone="no"?>
<!DOCTYPE svg PUBLIC "-//W3C//DTD SVG 1.1//EN"
  "http://www.w3.org/Graphics/SVG/1.1/DTD/svg11.dtd">
<!-- Created with matplotlib (http://matplotlib.org/) -->
<svg height="267pt" version="1.1" viewBox="0 0 411 267" width="411pt" xmlns="http://www.w3.org/2000/svg" xmlns:xlink="http://www.w3.org/1999/xlink">
 <defs>
  <style type="text/css">
*{stroke-linecap:butt;stroke-linejoin:round;}
  </style>
 </defs>
 <g id="figure_1">
  <g id="patch_1">
   <path d="M 0 267.972812 
L 411.348437 267.972812 
L 411.348437 0 
L 0 0 
z
" style="fill:none;"/>
  </g>
  <g id="axes_1">
   <g id="patch_2">
    <path d="M 65.848438 228.14 
L 400.648438 228.14 
L 400.648438 10.7 
L 65.848438 10.7 
z
" style="fill:none;"/>
   </g>
   <g id="matplotlib.axis_1">
    <g id="xtick_1">
     <g id="line2d_1">
      <defs>
       <path d="M 0 0 
L 0 3.5 
" id="m5527478890" style="stroke:#ffffff;stroke-width:0.8;"/>
      </defs>
      <g>
       <use style="fill:#ffffff;stroke:#ffffff;stroke-width:0.8;" x="108.736041" xlink:href="#m5527478890" y="228.14"/>
      </g>
     </g>
     <g id="text_1">
      <!-- 2 -->
      <defs>
       <path d="M 7.296875 5.59375 
L 15.40625 13.796875 
Q 23.5 21.90625 27.546875 26.5 
Q 31.59375 31.09375 34 35.640625 
Q 36.40625 40.203125 36.40625 45.09375 
Q 36.40625 51.203125 33.5 53.890625 
Q 30.59375 56.59375 25.796875 56.59375 
Q 21.5 56.59375 17.84375 54.6875 
Q 14.203125 52.796875 13 50.5 
Q 12.40625 49.40625 11.796875 48.25 
Q 11.203125 47.09375 11.203125 46.90625 
Q 11.203125 46.796875 11.296875 46.796875 
Q 11.40625 46.796875 11.703125 46.9375 
Q 12 47.09375 12.09375 46.703125 
L 11.796875 46.09375 
L 10.90625 46.59375 
L 5.796875 50.59375 
Q 8.796875 56.40625 14 59.546875 
Q 19.203125 62.703125 25.703125 62.703125 
Q 33.703125 62.703125 38.640625 57.890625 
Q 43.59375 53.09375 43.59375 44.90625 
Q 43.59375 39.5 41 34.390625 
Q 38.40625 29.296875 34.34375 24.6875 
Q 30.296875 20.09375 23.09375 13 
L 16.296875 6.09375 
L 39.5 6.09375 
Q 41.09375 6.09375 41.84375 6.296875 
Q 42.59375 6.5 43.203125 7.09375 
L 43.90625 7.09375 
L 43.90625 0 
L 7.296875 0 
z
" id="Inconsolata-Regular-32"/>
      </defs>
      <g style="fill:#ffffff;" transform="translate(105.736041 243.12)scale(0.12 -0.12)">
       <use xlink:href="#Inconsolata-Regular-32"/>
      </g>
     </g>
    </g>
    <g id="xtick_2">
     <g id="line2d_2">
      <g>
       <use style="fill:#ffffff;stroke:#ffffff;stroke-width:0.8;" x="164.074884" xlink:href="#m5527478890" y="228.14"/>
      </g>
     </g>
     <g id="text_2">
      <!-- 4 -->
      <defs>
       <path d="M 31.796875 0 
L 31.796875 15.296875 
L 4.796875 15.296875 
L 4.796875 20.40625 
L 33.296875 62.40625 
L 39.203125 62.40625 
L 39.203125 21.09375 
L 47.203125 21.09375 
L 47.203125 15.203125 
L 39.203125 15.203125 
L 39.203125 0 
z
M 12.90625 21.203125 
L 31.796875 21.203125 
L 31.796875 49.796875 
z
" id="Inconsolata-Regular-34"/>
      </defs>
      <g style="fill:#ffffff;" transform="translate(161.074884 243.12)scale(0.12 -0.12)">
       <use xlink:href="#Inconsolata-Regular-34"/>
      </g>
     </g>
    </g>
    <g id="xtick_3">
     <g id="line2d_3">
      <g>
       <use style="fill:#ffffff;stroke:#ffffff;stroke-width:0.8;" x="219.413727" xlink:href="#m5527478890" y="228.14"/>
      </g>
     </g>
     <g id="text_3">
      <!-- 6 -->
      <defs>
       <path d="M 26.796875 40.203125 
Q 31.5 40.203125 35.390625 37.640625 
Q 39.296875 35.09375 41.59375 30.4375 
Q 43.90625 25.796875 43.90625 19.796875 
Q 43.90625 13.703125 41.546875 9 
Q 39.203125 4.296875 35.09375 1.640625 
Q 31 -1 26.09375 -1 
Q 16.90625 -1 11.796875 6.84375 
Q 6.703125 14.703125 6.703125 28.40625 
Q 6.703125 39.40625 9.390625 47.203125 
Q 12.09375 55 17.046875 59 
Q 22 63 28.703125 63 
Q 36.5 63 42.40625 57.296875 
L 38 52.296875 
L 37.90625 52.203125 
Q 35.796875 54.796875 33.84375 55.796875 
Q 31.90625 56.796875 28.90625 56.796875 
Q 25.59375 56.796875 22.1875 54.75 
Q 18.796875 52.703125 16.25 47.34375 
Q 13.703125 42 13.59375 32.703125 
Q 15.703125 36.203125 19.25 38.203125 
Q 22.796875 40.203125 26.796875 40.203125 
z
M 36.796875 52 
Q 36.796875 52.59375 37.703125 51.90625 
L 37.296875 51.5 
L 36.796875 52 
z
M 37.90625 52.203125 
Q 38.5 51.40625 38.140625 51.65625 
Q 37.796875 51.90625 37.703125 51.90625 
L 37.90625 52.203125 
z
M 26.40625 5.203125 
Q 30.90625 5.203125 34 9.046875 
Q 37.09375 12.90625 37.09375 19.703125 
Q 37.09375 24.40625 35.5 27.65625 
Q 33.90625 30.90625 31.40625 32.5 
Q 28.90625 34.09375 26.203125 34.09375 
Q 22.703125 34.09375 19.390625 31.75 
Q 16.09375 29.40625 14 25.703125 
Q 13.796875 24.09375 13.796875 23.09375 
Q 13.796875 18.703125 15.34375 14.59375 
Q 16.90625 10.5 19.796875 7.84375 
Q 22.703125 5.203125 26.40625 5.203125 
z
" id="Inconsolata-Regular-36"/>
      </defs>
      <g style="fill:#ffffff;" transform="translate(216.413727 243.12)scale(0.12 -0.12)">
       <use xlink:href="#Inconsolata-Regular-36"/>
      </g>
     </g>
    </g>
    <g id="xtick_4">
     <g id="line2d_4">
      <g>
       <use style="fill:#ffffff;stroke:#ffffff;stroke-width:0.8;" x="274.75257" xlink:href="#m5527478890" y="228.14"/>
      </g>
     </g>
     <g id="text_4">
      <!-- 8 -->
      <defs>
       <path d="M 25 -1 
Q 19.296875 -1 14.9375 1.203125 
Q 10.59375 3.40625 8.296875 7.203125 
Q 6 11 6 15.703125 
Q 6 21.09375 9.390625 25.796875 
Q 12.796875 30.5 18.5 33.09375 
Q 14.203125 35.296875 11.59375 39.25 
Q 9 43.203125 9 47.703125 
Q 9 54.40625 13.296875 58.75 
Q 17.59375 63.09375 25.5 63.09375 
Q 33.703125 63.09375 37.84375 58.9375 
Q 42 54.796875 42 48.296875 
Q 42 43.796875 39.296875 39.75 
Q 36.59375 35.703125 32.09375 33.296875 
Q 37.5 30.796875 40.796875 26.140625 
Q 44.09375 21.5 44.09375 16.09375 
Q 44.09375 11.296875 41.75 7.390625 
Q 39.40625 3.5 35.046875 1.25 
Q 30.703125 -1 25 -1 
z
M 26.703125 35.796875 
Q 30.40625 37.90625 32.796875 41.25 
Q 35.203125 44.59375 35.203125 48.09375 
Q 35.203125 51.90625 32.59375 54.546875 
Q 30 57.203125 25.296875 57.203125 
Q 20.59375 57.203125 18.140625 54.640625 
Q 15.703125 52.09375 15.703125 48.40625 
Q 15.703125 44.203125 18.390625 41.5 
Q 21.09375 38.796875 26.703125 35.796875 
z
M 25.203125 5.296875 
Q 30.796875 5.296875 33.890625 8.34375 
Q 37 11.40625 37 16.09375 
Q 37 20.703125 33.390625 24.546875 
Q 29.796875 28.40625 23.703125 30.296875 
Q 19.09375 28.40625 16.140625 24.59375 
Q 13.203125 20.796875 13.203125 16.40625 
Q 13.203125 11.703125 16.453125 8.5 
Q 19.703125 5.296875 25.203125 5.296875 
z
" id="Inconsolata-Regular-38"/>
      </defs>
      <g style="fill:#ffffff;" transform="translate(271.75257 243.12)scale(0.12 -0.12)">
       <use xlink:href="#Inconsolata-Regular-38"/>
      </g>
     </g>
    </g>
    <g id="xtick_5">
     <g id="line2d_5">
      <g>
       <use style="fill:#ffffff;stroke:#ffffff;stroke-width:0.8;" x="330.091413" xlink:href="#m5527478890" y="228.14"/>
      </g>
     </g>
     <g id="text_5">
      <!-- 10 -->
      <defs>
       <path d="M 23 0 
L 23 53.703125 
L 10.40625 50 
L 8.796875 53.90625 
L 25.09375 62.40625 
L 30 62.40625 
L 30 0 
z
" id="Inconsolata-Regular-31"/>
       <path d="M 25 62.703125 
Q 34.203125 62.703125 39.25 54.203125 
Q 44.296875 45.703125 44.296875 30.796875 
Q 44.296875 15.5 39.296875 7.203125 
Q 34.296875 -1.09375 25 -1.09375 
Q 15.703125 -1.09375 10.703125 7.203125 
Q 5.703125 15.5 5.703125 30.796875 
Q 5.703125 45.703125 10.75 54.203125 
Q 15.796875 62.703125 25 62.703125 
z
M 25 56.59375 
Q 19.296875 56.59375 16.09375 49.640625 
Q 12.90625 42.703125 12.90625 30.796875 
Q 12.90625 24.296875 13.796875 19.296875 
L 35 46.703125 
Q 33.5 51.5 30.953125 54.046875 
Q 28.40625 56.59375 25 56.59375 
z
M 25 5 
Q 30.703125 5 33.890625 11.703125 
Q 37.09375 18.40625 37.09375 30.796875 
Q 37.09375 36.59375 36.40625 40.796875 
L 15.203125 13.796875 
Q 18.40625 5 25 5 
z
" id="Inconsolata-Regular-30"/>
      </defs>
      <g style="fill:#ffffff;" transform="translate(324.091413 243.12)scale(0.12 -0.12)">
       <use xlink:href="#Inconsolata-Regular-31"/>
       <use x="49.999985" xlink:href="#Inconsolata-Regular-30"/>
      </g>
     </g>
    </g>
    <g id="xtick_6">
     <g id="line2d_6">
      <g>
       <use style="fill:#ffffff;stroke:#ffffff;stroke-width:0.8;" x="385.430256" xlink:href="#m5527478890" y="228.14"/>
      </g>
     </g>
     <g id="text_6">
      <!-- 12 -->
      <g style="fill:#ffffff;" transform="translate(379.430256 243.12)scale(0.12 -0.12)">
       <use xlink:href="#Inconsolata-Regular-31"/>
       <use x="49.999985" xlink:href="#Inconsolata-Regular-32"/>
      </g>
     </g>
    </g>
    <g id="text_7">
     <!-- X-AXIS -->
     <defs>
      <path d="M 4.09375 0 
L 21.09375 31.796875 
L 4.40625 62.40625 
L 11.90625 62.40625 
L 25 38.703125 
L 37.90625 62.40625 
L 44.90625 62.40625 
L 29.09375 31.90625 
L 46.796875 0 
L 38.90625 0 
L 25.09375 24.703125 
L 11.703125 0 
z
" id="Inconsolata-Regular-58"/>
      <path d="M 7.09375 28.09375 
L 7.09375 34.796875 
L 43.09375 34.796875 
L 43.09375 28.09375 
z
" id="Inconsolata-Regular-2d"/>
      <path d="M 41.203125 0 
L 34.90625 18.203125 
L 14.796875 18.203125 
L 8.5 0 
L 1.59375 0 
L 24.59375 63.40625 
L 25.40625 63.40625 
L 48.40625 0 
z
M 16.703125 23.59375 
L 33.09375 23.59375 
L 24.90625 47.40625 
z
" id="Inconsolata-Regular-41"/>
      <path d="M 8.09375 0 
L 8.09375 5.90625 
L 20.40625 5.90625 
L 20.40625 56.40625 
L 8.796875 56.40625 
L 8.796875 62.296875 
L 39.703125 62.296875 
L 39.703125 56.40625 
L 27.40625 56.40625 
L 27.40625 5.796875 
L 40.296875 5.796875 
L 40.296875 0 
z
" id="Inconsolata-Regular-49"/>
      <path d="M 29.796875 34.40625 
Q 38.703125 30.703125 42.09375 26.796875 
Q 45.5 22.90625 45.5 17 
Q 45.5 12.40625 43.25 8.296875 
Q 41 4.203125 36.296875 1.59375 
Q 31.59375 -1 24.703125 -1 
Q 12.59375 -1 5.203125 6.90625 
L 8.796875 13.203125 
L 8.796875 13.296875 
Q 8.90625 13.296875 8.90625 13.25 
Q 8.90625 13.203125 8.90625 13.203125 
Q 11.59375 9.59375 15.84375 7.4375 
Q 20.09375 5.296875 25.703125 5.296875 
Q 31.203125 5.296875 34.890625 8.390625 
Q 38.59375 11.5 38.59375 16 
Q 38.59375 18.90625 37.4375 20.84375 
Q 36.296875 22.796875 33.296875 24.6875 
Q 30.296875 26.59375 24.296875 29.203125 
Q 15.09375 32.796875 11.140625 37.390625 
Q 7.203125 42 7.203125 47.703125 
Q 7.203125 54.703125 12.296875 58.890625 
Q 17.40625 63.09375 26.203125 63.09375 
Q 31.296875 63.09375 35.75 61.046875 
Q 40.203125 59 43.5 55.296875 
L 39.59375 50.09375 
L 39.5 50 
Q 36.5 54.09375 33.25 55.6875 
Q 30 57.296875 25.09375 57.296875 
Q 20.296875 57.296875 17.34375 54.640625 
Q 14.40625 52 14.40625 48.203125 
Q 14.40625 45.296875 15.65625 43.140625 
Q 16.90625 41 20.203125 38.953125 
Q 23.5 36.90625 29.796875 34.40625 
z
M 38.40625 49.796875 
Q 38.40625 50.09375 38.796875 49.890625 
Q 39.203125 49.703125 39.296875 49.703125 
L 39 49.296875 
L 38.40625 49.703125 
z
M 39.5 50 
Q 40.09375 49.203125 39.75 49.453125 
Q 39.40625 49.703125 39.296875 49.703125 
L 39.5 50 
z
M 9.90625 13.59375 
Q 9.90625 13.296875 9.5 13.5 
Q 9.09375 13.703125 9 13.703125 
L 9.203125 14.09375 
L 9.90625 13.703125 
z
M 8.796875 13.296875 
Q 8.203125 14.09375 9 13.703125 
L 8.796875 13.296875 
z
" id="Inconsolata-Regular-53"/>
     </defs>
     <g style="fill:#1f7a8c;" transform="translate(212.248438 258.434375)scale(0.14 -0.14)">
      <use xlink:href="#Inconsolata-Regular-58"/>
      <use x="49.999985" xlink:href="#Inconsolata-Regular-2d"/>
      <use x="99.999969" xlink:href="#Inconsolata-Regular-41"/>
      <use x="149.999954" xlink:href="#Inconsolata-Regular-58"/>
      <use x="199.999939" xlink:href="#Inconsolata-Regular-49"/>
      <use x="249.999924" xlink:href="#Inconsolata-Regular-53"/>
     </g>
    </g>
   </g>
   <g id="matplotlib.axis_2">
    <g id="ytick_1">
     <g id="line2d_7">
      <defs>
       <path d="M 0 0 
L -3.5 0 
" id="mbbdfdeea17" style="stroke:#ffffff;stroke-width:0.8;"/>
      </defs>
      <g>
       <use style="fill:#ffffff;stroke:#ffffff;stroke-width:0.8;" x="65.848438" xlink:href="#mbbdfdeea17" y="220.455177"/>
      </g>
     </g>
     <g id="text_8">
      <!-- 0 -->
      <g style="fill:#ffffff;" transform="translate(52.848438 224.445177)scale(0.12 -0.12)">
       <use xlink:href="#Inconsolata-Regular-30"/>
      </g>
     </g>
    </g>
    <g id="ytick_2">
     <g id="line2d_8">
      <g>
       <use style="fill:#ffffff;stroke:#ffffff;stroke-width:0.8;" x="65.848438" xlink:href="#mbbdfdeea17" y="190.029344"/>
      </g>
     </g>
     <g id="text_9">
      <!-- 50000 -->
      <defs>
       <path d="M 25.703125 40.5 
Q 31.09375 40.5 35.34375 37.953125 
Q 39.59375 35.40625 42.046875 30.65625 
Q 44.5 25.90625 44.5 19.59375 
Q 44.5 13.296875 41.953125 8.59375 
Q 39.40625 3.90625 34.953125 1.40625 
Q 30.5 -1.09375 24.90625 -1.09375 
Q 19.203125 -1.09375 14.34375 1.40625 
Q 9.5 3.90625 6.40625 8.5 
L 12 12.703125 
L 12.09375 12.796875 
Q 12.203125 12.796875 12.203125 12.75 
Q 12.203125 12.703125 12.203125 12.703125 
Q 14.796875 8.703125 17.6875 6.84375 
Q 20.59375 5 25.296875 5 
Q 28.5 5 31.296875 6.84375 
Q 34.09375 8.703125 35.75 12.046875 
Q 37.40625 15.40625 37.40625 19.90625 
Q 37.40625 26.703125 33.75 30.703125 
Q 30.09375 34.703125 24.59375 34.703125 
Q 21.40625 34.703125 18.296875 33.140625 
Q 15.203125 31.59375 12.90625 28.796875 
L 8.5 30.59375 
L 10.59375 62.296875 
L 42.203125 62.296875 
L 42.203125 56 
L 16.5 56 
L 15.5 38.09375 
Q 20.40625 40.5 25.703125 40.5 
z
M 12.09375 12.796875 
Q 11.59375 13.59375 12.296875 12.90625 
L 12.09375 12.796875 
z
M 13.203125 12.796875 
Q 13.203125 12.203125 12.296875 12.90625 
L 12.796875 13.296875 
L 13.203125 12.796875 
z
" id="Inconsolata-Regular-35"/>
      </defs>
      <g style="fill:#ffffff;" transform="translate(28.848438 194.019344)scale(0.12 -0.12)">
       <use xlink:href="#Inconsolata-Regular-35"/>
       <use x="49.999985" xlink:href="#Inconsolata-Regular-30"/>
       <use x="99.999969" xlink:href="#Inconsolata-Regular-30"/>
       <use x="149.999954" xlink:href="#Inconsolata-Regular-30"/>
       <use x="199.999939" xlink:href="#Inconsolata-Regular-30"/>
      </g>
     </g>
    </g>
    <g id="ytick_3">
     <g id="line2d_9">
      <g>
       <use style="fill:#ffffff;stroke:#ffffff;stroke-width:0.8;" x="65.848438" xlink:href="#mbbdfdeea17" y="159.60351"/>
      </g>
     </g>
     <g id="text_10">
      <!-- 100000 -->
      <g style="fill:#ffffff;" transform="translate(22.848438 163.59351)scale(0.12 -0.12)">
       <use xlink:href="#Inconsolata-Regular-31"/>
       <use x="49.999985" xlink:href="#Inconsolata-Regular-30"/>
       <use x="99.999969" xlink:href="#Inconsolata-Regular-30"/>
       <use x="149.999954" xlink:href="#Inconsolata-Regular-30"/>
       <use x="199.999939" xlink:href="#Inconsolata-Regular-30"/>
       <use x="249.999924" xlink:href="#Inconsolata-Regular-30"/>
      </g>
     </g>
    </g>
    <g id="ytick_4">
     <g id="line2d_10">
      <g>
       <use style="fill:#ffffff;stroke:#ffffff;stroke-width:0.8;" x="65.848438" xlink:href="#mbbdfdeea17" y="129.177676"/>
      </g>
     </g>
     <g id="text_11">
      <!-- 150000 -->
      <g style="fill:#ffffff;" transform="translate(22.848438 133.167676)scale(0.12 -0.12)">
       <use xlink:href="#Inconsolata-Regular-31"/>
       <use x="49.999985" xlink:href="#Inconsolata-Regular-35"/>
       <use x="99.999969" xlink:href="#Inconsolata-Regular-30"/>
       <use x="149.999954" xlink:href="#Inconsolata-Regular-30"/>
       <use x="199.999939" xlink:href="#Inconsolata-Regular-30"/>
       <use x="249.999924" xlink:href="#Inconsolata-Regular-30"/>
      </g>
     </g>
    </g>
    <g id="ytick_5">
     <g id="line2d_11">
      <g>
       <use style="fill:#ffffff;stroke:#ffffff;stroke-width:0.8;" x="65.848438" xlink:href="#mbbdfdeea17" y="98.751842"/>
      </g>
     </g>
     <g id="text_12">
      <!-- 200000 -->
      <g style="fill:#ffffff;" transform="translate(22.848438 102.741842)scale(0.12 -0.12)">
       <use xlink:href="#Inconsolata-Regular-32"/>
       <use x="49.999985" xlink:href="#Inconsolata-Regular-30"/>
       <use x="99.999969" xlink:href="#Inconsolata-Regular-30"/>
       <use x="149.999954" xlink:href="#Inconsolata-Regular-30"/>
       <use x="199.999939" xlink:href="#Inconsolata-Regular-30"/>
       <use x="249.999924" xlink:href="#Inconsolata-Regular-30"/>
      </g>
     </g>
    </g>
    <g id="ytick_6">
     <g id="line2d_12">
      <g>
       <use style="fill:#ffffff;stroke:#ffffff;stroke-width:0.8;" x="65.848438" xlink:href="#mbbdfdeea17" y="68.326009"/>
      </g>
     </g>
     <g id="text_13">
      <!-- 250000 -->
      <g style="fill:#ffffff;" transform="translate(22.848438 72.316009)scale(0.12 -0.12)">
       <use xlink:href="#Inconsolata-Regular-32"/>
       <use x="49.999985" xlink:href="#Inconsolata-Regular-35"/>
       <use x="99.999969" xlink:href="#Inconsolata-Regular-30"/>
       <use x="149.999954" xlink:href="#Inconsolata-Regular-30"/>
       <use x="199.999939" xlink:href="#Inconsolata-Regular-30"/>
       <use x="249.999924" xlink:href="#Inconsolata-Regular-30"/>
      </g>
     </g>
    </g>
    <g id="ytick_7">
     <g id="line2d_13">
      <g>
       <use style="fill:#ffffff;stroke:#ffffff;stroke-width:0.8;" x="65.848438" xlink:href="#mbbdfdeea17" y="37.900175"/>
      </g>
     </g>
     <g id="text_14">
      <!-- 300000 -->
      <defs>
       <path d="M 30.796875 33 
Q 36.296875 31.203125 39.5 27.203125 
Q 42.703125 23.203125 42.703125 17.09375 
Q 42.703125 12.09375 40.5 7.9375 
Q 38.296875 3.796875 34.09375 1.34375 
Q 29.90625 -1.09375 24 -1.09375 
Q 19 -1.09375 14.546875 0.703125 
Q 10.09375 2.5 6.90625 6 
L 11.5 11.5 
L 11.59375 11.59375 
L 11.703125 11.5 
Q 14.203125 8.296875 16.84375 6.59375 
Q 19.5 4.90625 23.703125 4.90625 
Q 29.5 4.90625 32.5 8.296875 
Q 35.5 11.703125 35.5 17.40625 
Q 35.5 23.59375 31.75 26.6875 
Q 28 29.796875 21.203125 29.796875 
Q 20.203125 29.796875 18 29.59375 
L 18 35.203125 
Q 26.90625 35.203125 30.15625 38.5 
Q 33.40625 41.796875 33.40625 47.5 
Q 33.40625 51.703125 30.953125 54.203125 
Q 28.5 56.703125 24.5 56.703125 
Q 18 56.703125 13.09375 52.09375 
L 8.90625 56.296875 
Q 15 62.703125 24.40625 62.703125 
Q 31.90625 62.703125 36.25 58.453125 
Q 40.59375 54.203125 40.59375 47.203125 
Q 40.59375 42.09375 38.09375 38.296875 
Q 35.59375 34.5 30.796875 33 
z
M 12.703125 11.796875 
Q 12.703125 11.5 12.390625 11.546875 
Q 12.09375 11.59375 11.796875 11.796875 
L 12.203125 12.296875 
L 12.703125 11.796875 
z
M 11.59375 11.59375 
Q 11.203125 12.296875 11.453125 12.09375 
Q 11.703125 11.90625 11.796875 11.796875 
L 11.59375 11.59375 
z
" id="Inconsolata-Regular-33"/>
      </defs>
      <g style="fill:#ffffff;" transform="translate(22.848438 41.890175)scale(0.12 -0.12)">
       <use xlink:href="#Inconsolata-Regular-33"/>
       <use x="49.999985" xlink:href="#Inconsolata-Regular-30"/>
       <use x="99.999969" xlink:href="#Inconsolata-Regular-30"/>
       <use x="149.999954" xlink:href="#Inconsolata-Regular-30"/>
       <use x="199.999939" xlink:href="#Inconsolata-Regular-30"/>
       <use x="249.999924" xlink:href="#Inconsolata-Regular-30"/>
      </g>
     </g>
    </g>
    <g id="text_15">
     <!-- Y-AXIS -->
     <defs>
      <path d="M 22 0 
L 22 24.59375 
L 2.796875 62.296875 
L 10.796875 62.296875 
L 26.09375 32.09375 
L 39.90625 62.296875 
L 47.296875 62.296875 
L 29.59375 24.59375 
L 29.59375 0 
z
" id="Inconsolata-Regular-59"/>
     </defs>
     <g style="fill:#1f7a8c;" transform="translate(16.51 140.42)rotate(-90)scale(0.14 -0.14)">
      <use xlink:href="#Inconsolata-Regular-59"/>
      <use x="49.999985" xlink:href="#Inconsolata-Regular-2d"/>
      <use x="99.999969" xlink:href="#Inconsolata-Regular-41"/>
      <use x="149.999954" xlink:href="#Inconsolata-Regular-58"/>
      <use x="199.999939" xlink:href="#Inconsolata-Regular-49"/>
      <use x="249.999924" xlink:href="#Inconsolata-Regular-53"/>
     </g>
    </g>
   </g>
   <g id="line2d_14">
    <path clip-path="url(#pf529b492a3)" d="M 81.066619 214.512818 
L 108.736041 212.621747 
L 136.405462 213.420484 
L 164.074884 214.297205 
L 191.744305 214.32857 
L 219.413727 213.182025 
L 247.083148 204.089207 
L 274.75257 201.897482 
L 302.421991 213.096264 
L 330.091413 214.920527 
L 357.760834 216.783128 
L 385.430256 214.507365 
" style="fill:none;stroke:#ffb400;stroke-linecap:square;"/>
    <defs>
     <path d="M 0 3 
C 0.795609 3 1.55874 2.683901 2.12132 2.12132 
C 2.683901 1.55874 3 0.795609 3 0 
C 3 -0.795609 2.683901 -1.55874 2.12132 -2.12132 
C 1.55874 -2.683901 0.795609 -3 0 -3 
C -0.795609 -3 -1.55874 -2.683901 -2.12132 -2.12132 
C -2.683901 -1.55874 -3 -0.795609 -3 0 
C -3 0.795609 -2.683901 1.55874 -2.12132 2.12132 
C -1.55874 2.683901 -0.795609 3 0 3 
z
" id="mec2eb48765" style="stroke:#ffffff;"/>
    </defs>
    <g clip-path="url(#pf529b492a3)">
     <use style="fill:#f8333c;stroke:#ffffff;" x="81.066619" xlink:href="#mec2eb48765" y="214.512818"/>
     <use style="fill:#f8333c;stroke:#ffffff;" x="108.736041" xlink:href="#mec2eb48765" y="212.621747"/>
     <use style="fill:#f8333c;stroke:#ffffff;" x="136.405462" xlink:href="#mec2eb48765" y="213.420484"/>
     <use style="fill:#f8333c;stroke:#ffffff;" x="164.074884" xlink:href="#mec2eb48765" y="214.297205"/>
     <use style="fill:#f8333c;stroke:#ffffff;" x="191.744305" xlink:href="#mec2eb48765" y="214.32857"/>
     <use style="fill:#f8333c;stroke:#ffffff;" x="219.413727" xlink:href="#mec2eb48765" y="213.182025"/>
     <use style="fill:#f8333c;stroke:#ffffff;" x="247.083148" xlink:href="#mec2eb48765" y="204.089207"/>
     <use style="fill:#f8333c;stroke:#ffffff;" x="274.75257" xlink:href="#mec2eb48765" y="201.897482"/>
     <use style="fill:#f8333c;stroke:#ffffff;" x="302.421991" xlink:href="#mec2eb48765" y="213.096264"/>
     <use style="fill:#f8333c;stroke:#ffffff;" x="330.091413" xlink:href="#mec2eb48765" y="214.920527"/>
     <use style="fill:#f8333c;stroke:#ffffff;" x="357.760834" xlink:href="#mec2eb48765" y="216.783128"/>
     <use style="fill:#f8333c;stroke:#ffffff;" x="385.430256" xlink:href="#mec2eb48765" y="214.507365"/>
    </g>
   </g>
   <g id="line2d_15">
    <path clip-path="url(#pf529b492a3)" d="M 81.066619 209.96433 
L 108.736041 208.027835 
L 136.405462 205.121593 
L 164.074884 199.30437 
L 191.744305 198.845037 
L 219.413727 193.344045 
L 247.083148 168.356546 
L 274.75257 158.254575 
L 302.421991 190.974289 
L 330.091413 200.488301 
L 357.760834 207.453675 
L 385.430256 205.376243 
" style="fill:none;stroke:#ffb400;stroke-linecap:square;"/>
    <g clip-path="url(#pf529b492a3)">
     <use style="fill:#f8333c;stroke:#ffffff;" x="81.066619" xlink:href="#mec2eb48765" y="209.96433"/>
     <use style="fill:#f8333c;stroke:#ffffff;" x="108.736041" xlink:href="#mec2eb48765" y="208.027835"/>
     <use style="fill:#f8333c;stroke:#ffffff;" x="136.405462" xlink:href="#mec2eb48765" y="205.121593"/>
     <use style="fill:#f8333c;stroke:#ffffff;" x="164.074884" xlink:href="#mec2eb48765" y="199.30437"/>
     <use style="fill:#f8333c;stroke:#ffffff;" x="191.744305" xlink:href="#mec2eb48765" y="198.845037"/>
     <use style="fill:#f8333c;stroke:#ffffff;" x="219.413727" xlink:href="#mec2eb48765" y="193.344045"/>
     <use style="fill:#f8333c;stroke:#ffffff;" x="247.083148" xlink:href="#mec2eb48765" y="168.356546"/>
     <use style="fill:#f8333c;stroke:#ffffff;" x="274.75257" xlink:href="#mec2eb48765" y="158.254575"/>
     <use style="fill:#f8333c;stroke:#ffffff;" x="302.421991" xlink:href="#mec2eb48765" y="190.974289"/>
     <use style="fill:#f8333c;stroke:#ffffff;" x="330.091413" xlink:href="#mec2eb48765" y="200.488301"/>
     <use style="fill:#f8333c;stroke:#ffffff;" x="357.760834" xlink:href="#mec2eb48765" y="207.453675"/>
     <use style="fill:#f8333c;stroke:#ffffff;" x="385.430256" xlink:href="#mec2eb48765" y="205.376243"/>
    </g>
   </g>
   <g id="line2d_16">
    <path clip-path="url(#pf529b492a3)" d="M 81.066619 215.13446 
L 108.736041 214.122643 
L 136.405462 212.584855 
L 164.074884 209.565734 
L 191.744305 208.4308 
L 219.413727 206.829588 
L 247.083148 192.461694 
L 274.75257 187.443386 
L 302.421991 207.050495 
L 330.091413 208.834329 
L 357.760834 212.654634 
L 385.430256 210.670018 
" style="fill:none;stroke:#ffb400;stroke-linecap:square;"/>
    <g clip-path="url(#pf529b492a3)">
     <use style="fill:#f8333c;stroke:#ffffff;" x="81.066619" xlink:href="#mec2eb48765" y="215.13446"/>
     <use style="fill:#f8333c;stroke:#ffffff;" x="108.736041" xlink:href="#mec2eb48765" y="214.122643"/>
     <use style="fill:#f8333c;stroke:#ffffff;" x="136.405462" xlink:href="#mec2eb48765" y="212.584855"/>
     <use style="fill:#f8333c;stroke:#ffffff;" x="164.074884" xlink:href="#mec2eb48765" y="209.565734"/>
     <use style="fill:#f8333c;stroke:#ffffff;" x="191.744305" xlink:href="#mec2eb48765" y="208.4308"/>
     <use style="fill:#f8333c;stroke:#ffffff;" x="219.413727" xlink:href="#mec2eb48765" y="206.829588"/>
     <use style="fill:#f8333c;stroke:#ffffff;" x="247.083148" xlink:href="#mec2eb48765" y="192.461694"/>
     <use style="fill:#f8333c;stroke:#ffffff;" x="274.75257" xlink:href="#mec2eb48765" y="187.443386"/>
     <use style="fill:#f8333c;stroke:#ffffff;" x="302.421991" xlink:href="#mec2eb48765" y="207.050495"/>
     <use style="fill:#f8333c;stroke:#ffffff;" x="330.091413" xlink:href="#mec2eb48765" y="208.834329"/>
     <use style="fill:#f8333c;stroke:#ffffff;" x="357.760834" xlink:href="#mec2eb48765" y="212.654634"/>
     <use style="fill:#f8333c;stroke:#ffffff;" x="385.430256" xlink:href="#mec2eb48765" y="210.670018"/>
    </g>
   </g>
   <g id="line2d_17">
    <path clip-path="url(#pf529b492a3)" d="M 81.066619 204.085859 
L 108.736041 203.037199 
L 136.405462 199.839894 
L 164.074884 187.696367 
L 191.744305 188.866458 
L 219.413727 182.1817 
L 247.083148 152.775659 
L 274.75257 143.678296 
L 302.421991 178.726577 
L 330.091413 186.530986 
L 357.760834 194.320907 
L 385.430256 193.730918 
" style="fill:none;stroke:#ffb400;stroke-linecap:square;"/>
    <g clip-path="url(#pf529b492a3)">
     <use style="fill:#f8333c;stroke:#ffffff;" x="81.066619" xlink:href="#mec2eb48765" y="204.085859"/>
     <use style="fill:#f8333c;stroke:#ffffff;" x="108.736041" xlink:href="#mec2eb48765" y="203.037199"/>
     <use style="fill:#f8333c;stroke:#ffffff;" x="136.405462" xlink:href="#mec2eb48765" y="199.839894"/>
     <use style="fill:#f8333c;stroke:#ffffff;" x="164.074884" xlink:href="#mec2eb48765" y="187.696367"/>
     <use style="fill:#f8333c;stroke:#ffffff;" x="191.744305" xlink:href="#mec2eb48765" y="188.866458"/>
     <use style="fill:#f8333c;stroke:#ffffff;" x="219.413727" xlink:href="#mec2eb48765" y="182.1817"/>
     <use style="fill:#f8333c;stroke:#ffffff;" x="247.083148" xlink:href="#mec2eb48765" y="152.775659"/>
     <use style="fill:#f8333c;stroke:#ffffff;" x="274.75257" xlink:href="#mec2eb48765" y="143.678296"/>
     <use style="fill:#f8333c;stroke:#ffffff;" x="302.421991" xlink:href="#mec2eb48765" y="178.726577"/>
     <use style="fill:#f8333c;stroke:#ffffff;" x="330.091413" xlink:href="#mec2eb48765" y="186.530986"/>
     <use style="fill:#f8333c;stroke:#ffffff;" x="357.760834" xlink:href="#mec2eb48765" y="194.320907"/>
     <use style="fill:#f8333c;stroke:#ffffff;" x="385.430256" xlink:href="#mec2eb48765" y="193.730918"/>
    </g>
   </g>
   <g id="line2d_18">
    <path clip-path="url(#pf529b492a3)" d="M 81.066619 183.565483 
L 108.736041 181.476946 
L 136.405462 177.610802 
L 164.074884 178.889493 
L 191.744305 181.25047 
L 219.413727 171.636116 
L 247.083148 159.652388 
L 274.75257 159.601137 
L 302.421991 164.520811 
L 330.091413 166.293562 
L 357.760834 176.129869 
L 385.430256 169.655313 
" style="fill:none;stroke:#ffb400;stroke-linecap:square;"/>
    <g clip-path="url(#pf529b492a3)">
     <use style="fill:#f8333c;stroke:#ffffff;" x="81.066619" xlink:href="#mec2eb48765" y="183.565483"/>
     <use style="fill:#f8333c;stroke:#ffffff;" x="108.736041" xlink:href="#mec2eb48765" y="181.476946"/>
     <use style="fill:#f8333c;stroke:#ffffff;" x="136.405462" xlink:href="#mec2eb48765" y="177.610802"/>
     <use style="fill:#f8333c;stroke:#ffffff;" x="164.074884" xlink:href="#mec2eb48765" y="178.889493"/>
     <use style="fill:#f8333c;stroke:#ffffff;" x="191.744305" xlink:href="#mec2eb48765" y="181.25047"/>
     <use style="fill:#f8333c;stroke:#ffffff;" x="219.413727" xlink:href="#mec2eb48765" y="171.636116"/>
     <use style="fill:#f8333c;stroke:#ffffff;" x="247.083148" xlink:href="#mec2eb48765" y="159.652388"/>
     <use style="fill:#f8333c;stroke:#ffffff;" x="274.75257" xlink:href="#mec2eb48765" y="159.601137"/>
     <use style="fill:#f8333c;stroke:#ffffff;" x="302.421991" xlink:href="#mec2eb48765" y="164.520811"/>
     <use style="fill:#f8333c;stroke:#ffffff;" x="330.091413" xlink:href="#mec2eb48765" y="166.293562"/>
     <use style="fill:#f8333c;stroke:#ffffff;" x="357.760834" xlink:href="#mec2eb48765" y="176.129869"/>
     <use style="fill:#f8333c;stroke:#ffffff;" x="385.430256" xlink:href="#mec2eb48765" y="169.655313"/>
    </g>
   </g>
   <g id="line2d_19">
    <path clip-path="url(#pf529b492a3)" d="M 81.066619 215.739723 
L 108.736041 215.720852 
L 136.405462 214.250388 
L 164.074884 212.567036 
L 191.744305 211.578391 
L 219.413727 210.28234 
L 247.083148 199.371272 
L 274.75257 200.225466 
L 302.421991 211.124507 
L 330.091413 212.235943 
L 357.760834 214.720902 
L 385.430256 213.418331 
" style="fill:none;stroke:#ffb400;stroke-linecap:square;"/>
    <g clip-path="url(#pf529b492a3)">
     <use style="fill:#f8333c;stroke:#ffffff;" x="81.066619" xlink:href="#mec2eb48765" y="215.739723"/>
     <use style="fill:#f8333c;stroke:#ffffff;" x="108.736041" xlink:href="#mec2eb48765" y="215.720852"/>
     <use style="fill:#f8333c;stroke:#ffffff;" x="136.405462" xlink:href="#mec2eb48765" y="214.250388"/>
     <use style="fill:#f8333c;stroke:#ffffff;" x="164.074884" xlink:href="#mec2eb48765" y="212.567036"/>
     <use style="fill:#f8333c;stroke:#ffffff;" x="191.744305" xlink:href="#mec2eb48765" y="211.578391"/>
     <use style="fill:#f8333c;stroke:#ffffff;" x="219.413727" xlink:href="#mec2eb48765" y="210.28234"/>
     <use style="fill:#f8333c;stroke:#ffffff;" x="247.083148" xlink:href="#mec2eb48765" y="199.371272"/>
     <use style="fill:#f8333c;stroke:#ffffff;" x="274.75257" xlink:href="#mec2eb48765" y="200.225466"/>
     <use style="fill:#f8333c;stroke:#ffffff;" x="302.421991" xlink:href="#mec2eb48765" y="211.124507"/>
     <use style="fill:#f8333c;stroke:#ffffff;" x="330.091413" xlink:href="#mec2eb48765" y="212.235943"/>
     <use style="fill:#f8333c;stroke:#ffffff;" x="357.760834" xlink:href="#mec2eb48765" y="214.720902"/>
     <use style="fill:#f8333c;stroke:#ffffff;" x="385.430256" xlink:href="#mec2eb48765" y="213.418331"/>
    </g>
   </g>
   <g id="line2d_20">
    <path clip-path="url(#pf529b492a3)" d="M 81.066619 186.335765 
L 108.736041 181.445912 
L 136.405462 174.084715 
L 164.074884 145.180448 
L 191.744305 145.946472 
L 219.413727 129.469057 
L 247.083148 58.535525 
L 274.75257 20.583636 
L 302.421991 117.591275 
L 330.091413 150.176252 
L 357.760834 167.261976 
L 385.430256 169.711337 
" style="fill:none;stroke:#ffb400;stroke-linecap:square;"/>
    <g clip-path="url(#pf529b492a3)">
     <use style="fill:#f8333c;stroke:#ffffff;" x="81.066619" xlink:href="#mec2eb48765" y="186.335765"/>
     <use style="fill:#f8333c;stroke:#ffffff;" x="108.736041" xlink:href="#mec2eb48765" y="181.445912"/>
     <use style="fill:#f8333c;stroke:#ffffff;" x="136.405462" xlink:href="#mec2eb48765" y="174.084715"/>
     <use style="fill:#f8333c;stroke:#ffffff;" x="164.074884" xlink:href="#mec2eb48765" y="145.180448"/>
     <use style="fill:#f8333c;stroke:#ffffff;" x="191.744305" xlink:href="#mec2eb48765" y="145.946472"/>
     <use style="fill:#f8333c;stroke:#ffffff;" x="219.413727" xlink:href="#mec2eb48765" y="129.469057"/>
     <use style="fill:#f8333c;stroke:#ffffff;" x="247.083148" xlink:href="#mec2eb48765" y="58.535525"/>
     <use style="fill:#f8333c;stroke:#ffffff;" x="274.75257" xlink:href="#mec2eb48765" y="20.583636"/>
     <use style="fill:#f8333c;stroke:#ffffff;" x="302.421991" xlink:href="#mec2eb48765" y="117.591275"/>
     <use style="fill:#f8333c;stroke:#ffffff;" x="330.091413" xlink:href="#mec2eb48765" y="150.176252"/>
     <use style="fill:#f8333c;stroke:#ffffff;" x="357.760834" xlink:href="#mec2eb48765" y="167.261976"/>
     <use style="fill:#f8333c;stroke:#ffffff;" x="385.430256" xlink:href="#mec2eb48765" y="169.711337"/>
    </g>
   </g>
   <g id="line2d_21">
    <path clip-path="url(#pf529b492a3)" d="M 81.066619 215.417416 
L 108.736041 214.581244 
L 136.405462 213.438563 
L 164.074884 209.170129 
L 191.744305 208.160168 
L 219.413727 206.611232 
L 247.083148 191.104999 
L 274.75257 185.096065 
L 302.421991 207.130615 
L 330.091413 210.506221 
L 357.760834 213.761728 
L 385.430256 212.015015 
" style="fill:none;stroke:#ffb400;stroke-linecap:square;"/>
    <g clip-path="url(#pf529b492a3)">
     <use style="fill:#f8333c;stroke:#ffffff;" x="81.066619" xlink:href="#mec2eb48765" y="215.417416"/>
     <use style="fill:#f8333c;stroke:#ffffff;" x="108.736041" xlink:href="#mec2eb48765" y="214.581244"/>
     <use style="fill:#f8333c;stroke:#ffffff;" x="136.405462" xlink:href="#mec2eb48765" y="213.438563"/>
     <use style="fill:#f8333c;stroke:#ffffff;" x="164.074884" xlink:href="#mec2eb48765" y="209.170129"/>
     <use style="fill:#f8333c;stroke:#ffffff;" x="191.744305" xlink:href="#mec2eb48765" y="208.160168"/>
     <use style="fill:#f8333c;stroke:#ffffff;" x="219.413727" xlink:href="#mec2eb48765" y="206.611232"/>
     <use style="fill:#f8333c;stroke:#ffffff;" x="247.083148" xlink:href="#mec2eb48765" y="191.104999"/>
     <use style="fill:#f8333c;stroke:#ffffff;" x="274.75257" xlink:href="#mec2eb48765" y="185.096065"/>
     <use style="fill:#f8333c;stroke:#ffffff;" x="302.421991" xlink:href="#mec2eb48765" y="207.130615"/>
     <use style="fill:#f8333c;stroke:#ffffff;" x="330.091413" xlink:href="#mec2eb48765" y="210.506221"/>
     <use style="fill:#f8333c;stroke:#ffffff;" x="357.760834" xlink:href="#mec2eb48765" y="213.761728"/>
     <use style="fill:#f8333c;stroke:#ffffff;" x="385.430256" xlink:href="#mec2eb48765" y="212.015015"/>
    </g>
   </g>
   <g id="line2d_22">
    <path clip-path="url(#pf529b492a3)" d="M 81.066619 218.256364 
L 108.736041 217.906392 
L 136.405462 217.493335 
L 164.074884 215.309932 
L 191.744305 214.574127 
L 219.413727 213.806646 
L 247.083148 207.708914 
L 274.75257 205.314872 
L 302.421991 214.124982 
L 330.091413 215.20719 
L 357.760834 217.424862 
L 385.430256 217.088271 
" style="fill:none;stroke:#ffb400;stroke-linecap:square;"/>
    <g clip-path="url(#pf529b492a3)">
     <use style="fill:#f8333c;stroke:#ffffff;" x="81.066619" xlink:href="#mec2eb48765" y="218.256364"/>
     <use style="fill:#f8333c;stroke:#ffffff;" x="108.736041" xlink:href="#mec2eb48765" y="217.906392"/>
     <use style="fill:#f8333c;stroke:#ffffff;" x="136.405462" xlink:href="#mec2eb48765" y="217.493335"/>
     <use style="fill:#f8333c;stroke:#ffffff;" x="164.074884" xlink:href="#mec2eb48765" y="215.309932"/>
     <use style="fill:#f8333c;stroke:#ffffff;" x="191.744305" xlink:href="#mec2eb48765" y="214.574127"/>
     <use style="fill:#f8333c;stroke:#ffffff;" x="219.413727" xlink:href="#mec2eb48765" y="213.806646"/>
     <use style="fill:#f8333c;stroke:#ffffff;" x="247.083148" xlink:href="#mec2eb48765" y="207.708914"/>
     <use style="fill:#f8333c;stroke:#ffffff;" x="274.75257" xlink:href="#mec2eb48765" y="205.314872"/>
     <use style="fill:#f8333c;stroke:#ffffff;" x="302.421991" xlink:href="#mec2eb48765" y="214.124982"/>
     <use style="fill:#f8333c;stroke:#ffffff;" x="330.091413" xlink:href="#mec2eb48765" y="215.20719"/>
     <use style="fill:#f8333c;stroke:#ffffff;" x="357.760834" xlink:href="#mec2eb48765" y="217.424862"/>
     <use style="fill:#f8333c;stroke:#ffffff;" x="385.430256" xlink:href="#mec2eb48765" y="217.088271"/>
    </g>
   </g>
   <g id="line2d_23">
    <path clip-path="url(#pf529b492a3)" d="M 81.066619 209.580303 
L 108.736041 202.102061 
L 136.405462 205.066417 
L 164.074884 207.537598 
L 191.744305 204.129007 
L 219.413727 201.135354 
L 247.083148 188.702791 
L 274.75257 182.398714 
L 302.421991 198.202299 
L 330.091413 203.725252 
L 357.760834 213.618471 
L 385.430256 206.429289 
" style="fill:none;stroke:#ffb400;stroke-linecap:square;"/>
    <g clip-path="url(#pf529b492a3)">
     <use style="fill:#f8333c;stroke:#ffffff;" x="81.066619" xlink:href="#mec2eb48765" y="209.580303"/>
     <use style="fill:#f8333c;stroke:#ffffff;" x="108.736041" xlink:href="#mec2eb48765" y="202.102061"/>
     <use style="fill:#f8333c;stroke:#ffffff;" x="136.405462" xlink:href="#mec2eb48765" y="205.066417"/>
     <use style="fill:#f8333c;stroke:#ffffff;" x="164.074884" xlink:href="#mec2eb48765" y="207.537598"/>
     <use style="fill:#f8333c;stroke:#ffffff;" x="191.744305" xlink:href="#mec2eb48765" y="204.129007"/>
     <use style="fill:#f8333c;stroke:#ffffff;" x="219.413727" xlink:href="#mec2eb48765" y="201.135354"/>
     <use style="fill:#f8333c;stroke:#ffffff;" x="247.083148" xlink:href="#mec2eb48765" y="188.702791"/>
     <use style="fill:#f8333c;stroke:#ffffff;" x="274.75257" xlink:href="#mec2eb48765" y="182.398714"/>
     <use style="fill:#f8333c;stroke:#ffffff;" x="302.421991" xlink:href="#mec2eb48765" y="198.202299"/>
     <use style="fill:#f8333c;stroke:#ffffff;" x="330.091413" xlink:href="#mec2eb48765" y="203.725252"/>
     <use style="fill:#f8333c;stroke:#ffffff;" x="357.760834" xlink:href="#mec2eb48765" y="213.618471"/>
     <use style="fill:#f8333c;stroke:#ffffff;" x="385.430256" xlink:href="#mec2eb48765" y="206.429289"/>
    </g>
   </g>
   <g id="line2d_24">
    <path clip-path="url(#pf529b492a3)" d="M 81.066619 195.819537 
L 108.736041 188.51718 
L 136.405462 189.01004 
L 164.074884 181.705545 
L 191.744305 179.85995 
L 219.413727 165.440767 
L 247.083148 104.038753 
L 274.75257 76.850475 
L 302.421991 157.298428 
L 330.091413 184.224605 
L 357.760834 196.153131 
L 385.430256 187.704282 
" style="fill:none;stroke:#ffb400;stroke-linecap:square;"/>
    <g clip-path="url(#pf529b492a3)">
     <use style="fill:#f8333c;stroke:#ffffff;" x="81.066619" xlink:href="#mec2eb48765" y="195.819537"/>
     <use style="fill:#f8333c;stroke:#ffffff;" x="108.736041" xlink:href="#mec2eb48765" y="188.51718"/>
     <use style="fill:#f8333c;stroke:#ffffff;" x="136.405462" xlink:href="#mec2eb48765" y="189.01004"/>
     <use style="fill:#f8333c;stroke:#ffffff;" x="164.074884" xlink:href="#mec2eb48765" y="181.705545"/>
     <use style="fill:#f8333c;stroke:#ffffff;" x="191.744305" xlink:href="#mec2eb48765" y="179.85995"/>
     <use style="fill:#f8333c;stroke:#ffffff;" x="219.413727" xlink:href="#mec2eb48765" y="165.440767"/>
     <use style="fill:#f8333c;stroke:#ffffff;" x="247.083148" xlink:href="#mec2eb48765" y="104.038753"/>
     <use style="fill:#f8333c;stroke:#ffffff;" x="274.75257" xlink:href="#mec2eb48765" y="76.850475"/>
     <use style="fill:#f8333c;stroke:#ffffff;" x="302.421991" xlink:href="#mec2eb48765" y="157.298428"/>
     <use style="fill:#f8333c;stroke:#ffffff;" x="330.091413" xlink:href="#mec2eb48765" y="184.224605"/>
     <use style="fill:#f8333c;stroke:#ffffff;" x="357.760834" xlink:href="#mec2eb48765" y="196.153131"/>
     <use style="fill:#f8333c;stroke:#ffffff;" x="385.430256" xlink:href="#mec2eb48765" y="187.704282"/>
    </g>
   </g>
   <g id="line2d_25">
    <path clip-path="url(#pf529b492a3)" d="M 81.066619 214.036802 
L 108.736041 213.346577 
L 136.405462 212.861656 
L 164.074884 211.262225 
L 191.744305 211.021781 
L 219.413727 209.199556 
L 247.083148 202.154093 
L 274.75257 199.120397 
L 302.421991 210.073467 
L 330.091413 211.005679 
L 357.760834 213.099271 
L 385.430256 210.638766 
" style="fill:none;stroke:#ffb400;stroke-linecap:square;"/>
    <g clip-path="url(#pf529b492a3)">
     <use style="fill:#f8333c;stroke:#ffffff;" x="81.066619" xlink:href="#mec2eb48765" y="214.036802"/>
     <use style="fill:#f8333c;stroke:#ffffff;" x="108.736041" xlink:href="#mec2eb48765" y="213.346577"/>
     <use style="fill:#f8333c;stroke:#ffffff;" x="136.405462" xlink:href="#mec2eb48765" y="212.861656"/>
     <use style="fill:#f8333c;stroke:#ffffff;" x="164.074884" xlink:href="#mec2eb48765" y="211.262225"/>
     <use style="fill:#f8333c;stroke:#ffffff;" x="191.744305" xlink:href="#mec2eb48765" y="211.021781"/>
     <use style="fill:#f8333c;stroke:#ffffff;" x="219.413727" xlink:href="#mec2eb48765" y="209.199556"/>
     <use style="fill:#f8333c;stroke:#ffffff;" x="247.083148" xlink:href="#mec2eb48765" y="202.154093"/>
     <use style="fill:#f8333c;stroke:#ffffff;" x="274.75257" xlink:href="#mec2eb48765" y="199.120397"/>
     <use style="fill:#f8333c;stroke:#ffffff;" x="302.421991" xlink:href="#mec2eb48765" y="210.073467"/>
     <use style="fill:#f8333c;stroke:#ffffff;" x="330.091413" xlink:href="#mec2eb48765" y="211.005679"/>
     <use style="fill:#f8333c;stroke:#ffffff;" x="357.760834" xlink:href="#mec2eb48765" y="213.099271"/>
     <use style="fill:#f8333c;stroke:#ffffff;" x="385.430256" xlink:href="#mec2eb48765" y="210.638766"/>
    </g>
   </g>
   <g id="line2d_26">
    <path clip-path="url(#pf529b492a3)" d="M 81.066619 214.688913 
L 108.736041 214.453443 
L 136.405462 213.047449 
L 164.074884 211.900528 
L 191.744305 211.460535 
L 219.413727 209.093339 
L 247.083148 202.615274 
L 274.75257 202.806713 
L 302.421991 209.276138 
L 330.091413 210.635347 
L 357.760834 212.550221 
L 385.430256 211.889899 
" style="fill:none;stroke:#ffb400;stroke-linecap:square;"/>
    <g clip-path="url(#pf529b492a3)">
     <use style="fill:#f8333c;stroke:#ffffff;" x="81.066619" xlink:href="#mec2eb48765" y="214.688913"/>
     <use style="fill:#f8333c;stroke:#ffffff;" x="108.736041" xlink:href="#mec2eb48765" y="214.453443"/>
     <use style="fill:#f8333c;stroke:#ffffff;" x="136.405462" xlink:href="#mec2eb48765" y="213.047449"/>
     <use style="fill:#f8333c;stroke:#ffffff;" x="164.074884" xlink:href="#mec2eb48765" y="211.900528"/>
     <use style="fill:#f8333c;stroke:#ffffff;" x="191.744305" xlink:href="#mec2eb48765" y="211.460535"/>
     <use style="fill:#f8333c;stroke:#ffffff;" x="219.413727" xlink:href="#mec2eb48765" y="209.093339"/>
     <use style="fill:#f8333c;stroke:#ffffff;" x="247.083148" xlink:href="#mec2eb48765" y="202.615274"/>
     <use style="fill:#f8333c;stroke:#ffffff;" x="274.75257" xlink:href="#mec2eb48765" y="202.806713"/>
     <use style="fill:#f8333c;stroke:#ffffff;" x="302.421991" xlink:href="#mec2eb48765" y="209.276138"/>
     <use style="fill:#f8333c;stroke:#ffffff;" x="330.091413" xlink:href="#mec2eb48765" y="210.635347"/>
     <use style="fill:#f8333c;stroke:#ffffff;" x="357.760834" xlink:href="#mec2eb48765" y="212.550221"/>
     <use style="fill:#f8333c;stroke:#ffffff;" x="385.430256" xlink:href="#mec2eb48765" y="211.889899"/>
    </g>
   </g>
   <g id="patch_3">
    <path d="M 65.848438 228.14 
L 65.848438 10.7 
" style="fill:none;stroke:#ffffff;stroke-linecap:square;stroke-linejoin:miter;stroke-width:0.8;"/>
   </g>
   <g id="patch_4">
    <path d="M 400.648438 228.14 
L 400.648438 10.7 
" style="fill:none;stroke:#ffffff;stroke-linecap:square;stroke-linejoin:miter;stroke-width:0.8;"/>
   </g>
   <g id="patch_5">
    <path d="M 65.848438 228.14 
L 400.648438 228.14 
" style="fill:none;stroke:#ffffff;stroke-linecap:square;stroke-linejoin:miter;stroke-width:0.8;"/>
   </g>
   <g id="patch_6">
    <path d="M 65.848438 10.7 
L 400.648438 10.7 
" style="fill:none;stroke:#ffffff;stroke-linecap:square;stroke-linejoin:miter;stroke-width:0.8;"/>
   </g>
  </g>
 </g>
 <defs>
  <clipPath id="pf529b492a3">
   <rect height="217.44" width="334.8" x="65.848438" y="10.7"/>
  </clipPath>
 </defs>
</svg>
